<?xml version="1.0" standalone="no"?>
<!DOCTYPE svg PUBLIC "-//W3C//DTD SVG 20010904//EN"
 "http://www.w3.org/TR/2001/REC-SVG-20010904/DTD/svg10.dtd">
<svg version="1.0" xmlns="http://www.w3.org/2000/svg"
 width="224.000000pt" height="224.000000pt" viewBox="0 0 224.000000 224.000000"
 preserveAspectRatio="xMidYMid meet">

<g transform="translate(0.000000,224.000000) scale(0.100000,-0.100000)"
fill="#000000" stroke="none">
<path d="M950 2035 c-226 -73 -410 -273 -503 -545 -77 -224 -79 -490 -6 -728
61 -200 202 -393 365 -498 54 -35 163 -82 204 -89 89 -14 146 -15 213 -5 144
22 267 87 380 202 179 181 277 441 277 733 0 452 -234 827 -584 934 -99 30
-244 29 -346 -4z m290 -21 c0 -2 -7 -4 -15 -4 -8 0 -15 4 -15 10 0 5 7 7 15 4
8 -4 15 -8 15 -10z m-114 -69 c-3 -8 -12 -12 -21 -9 -18 7 -20 60 -2 67 14 5
31 -37 23 -58z m86 50 c15 -6 13 -65 -1 -65 -4 0 -6 14 -3 30 3 22 0 30 -11
30 -9 0 -17 -11 -20 -27 -4 -26 -4 -26 -6 5 -1 32 9 39 41 27z m-168 -21 c11
-30 5 -51 -7 -24 -6 14 -16 28 -22 32 -6 5 -3 8 6 8 9 0 20 -7 23 -16z m274
-2 c10 -7 10 -17 -2 -49 -8 -23 -12 -44 -9 -47 3 -3 -9 -1 -27 4 -44 13 -52
22 -12 14 19 -4 32 -2 32 4 0 5 3 24 6 41 5 24 3 31 -8 31 -9 0 -18 -13 -22
-32 -3 -17 -9 -29 -12 -25 -3 3 -3 19 1 36 7 31 26 39 53 23z m-321 -28 c3 -8
0 -21 -7 -27 -10 -9 -11 -9 -6 1 4 7 2 19 -4 27 -9 11 -9 15 -1 15 6 0 14 -7
18 -16z m-59 -19 c6 -13 8 -26 4 -29 -5 -3 -13 8 -19 25 -14 35 -1 39 15 4z
m441 -18 c-5 -18 -9 -33 -9 -34 0 -1 -7 0 -15 3 -8 4 -15 10 -15 16 0 5 4 7 9
4 12 -8 22 20 15 39 -4 11 -2 13 9 9 12 -4 13 -12 6 -37z m-482 11 c1 -11 8
-25 15 -29 9 -6 10 -9 1 -9 -13 0 -33 30 -33 49 0 21 16 11 17 -11z m525 -50
c-24 -37 -28 -30 -10 19 7 20 16 29 21 24 6 -6 2 -22 -11 -43z m-568 17 c11
-16 12 -23 3 -20 -16 7 -40 45 -28 45 5 0 16 -11 25 -25z m640 -40 c-11 -36
-24 -45 -44 -32 -17 10 -17 13 -5 27 8 9 15 24 15 33 0 15 3 15 20 5 14 -9 18
-19 14 -33z m-668 18 c0 -10 5 -17 12 -15 8 1 11 -2 7 -8 -3 -5 -10 -10 -15
-10 -11 0 -21 30 -14 41 8 14 12 11 10 -8z m399 2 c22 -4 52 -14 67 -21 33
-17 41 -18 32 -1 -4 7 -3 9 2 4 5 -5 8 -11 6 -14 -6 -9 51 -42 61 -36 10 6
106 -85 140 -132 15 -21 16 -26 4 -16 -17 13 -24 4 -9 -15 4 -5 -4 4 -18 21
-60 72 -127 127 -198 162 -73 37 -80 38 -182 38 -100 0 -109 -2 -175 -34 -157
-77 -292 -271 -335 -482 -11 -52 -20 -105 -20 -119 0 -14 -5 -32 -10 -40 -12
-17 -6 35 15 147 8 40 13 78 11 85 -1 7 -1 9 2 4 7 -13 43 86 37 102 -3 7 -1
11 3 8 12 -7 44 63 36 76 -4 7 -2 8 4 4 12 -7 16 4 13 34 -2 12 0 12 7 2 7
-10 15 -4 33 25 13 21 22 43 21 48 -2 6 0 7 4 3 8 -9 99 69 99 85 0 7 7 12 15
13 35 2 41 4 35 13 -3 5 0 13 6 17 8 5 9 3 4 -6 -6 -10 -4 -11 11 -5 87 37
183 48 279 30z m-425 -61 c0 -5 -7 2 -16 14 -8 12 -23 22 -32 22 -14 0 -14 2
-3 9 10 7 20 2 33 -14 10 -13 18 -27 18 -31z m744 17 c3 -4 -3 -16 -14 -26
-11 -10 -20 -22 -20 -27 0 -13 27 -9 40 7 7 8 17 15 23 15 6 0 0 -11 -13 -25
-13 -14 -20 -25 -15 -25 5 0 5 -3 2 -7 -9 -8 -47 26 -47 42 0 7 7 18 15 25 8
7 12 16 9 21 -3 5 -1 9 5 9 5 0 12 -4 15 -9z m-802 -18 c22 -20 23 -36 3 -53
-13 -10 -19 -10 -35 5 -21 19 -27 45 -9 45 5 0 8 -4 5 -9 -3 -4 3 -16 13 -25
29 -26 38 0 10 30 -25 27 -16 33 13 7z m395 -15 c-3 -8 -6 -5 -6 6 -1 11 2 17
5 13 3 -3 4 -12 1 -19z m-442 -58 c19 -13 24 -20 14 -20 -9 0 -22 7 -29 15 -9
11 -16 13 -23 6 -7 -7 -5 -16 6 -29 23 -25 22 -39 -2 -18 -11 10 -25 14 -37 9
-16 -6 -15 -2 6 24 14 18 27 32 30 32 3 1 19 -8 35 -19z m921 -41 c-34 -27
-44 -23 -16 6 13 14 20 28 16 32 -4 4 -11 1 -16 -7 -6 -8 -10 -11 -10 -6 0 5
-7 3 -15 -4 -9 -8 -15 -9 -15 -2 0 6 10 18 23 27 21 15 23 14 39 -6 17 -20 17
-22 -6 -40z m-463 44 c-7 -2 -21 -2 -30 0 -10 3 -4 5 12 5 17 0 24 -2 18 -5z
m84 -15 c-3 -8 -6 -5 -6 6 -1 11 2 17 5 13 3 -3 4 -12 1 -19z m-179 -43 c4 -6
-1 -2 -10 8 -10 11 -18 27 -17 36 0 10 4 7 10 -8 5 -14 13 -30 17 -36z m100
25 c11 -19 10 -20 -25 -20 -34 1 -36 2 -21 14 10 7 15 16 11 19 -3 4 0 7 8 7
8 0 20 -9 27 -20z m72 -15 c0 -8 -4 -15 -10 -15 -5 0 -7 7 -4 15 4 8 8 15 10
15 2 0 4 -7 4 -15z m470 -13 c0 -15 -2 -15 -10 -2 -13 20 -13 33 0 25 6 -3 10
-14 10 -23z m-1133 -4 c-3 -8 -6 -5 -6 6 -1 11 2 17 5 13 3 -3 4 -12 1 -19z
m89 -35 c-2 -3 -15 2 -27 11 -18 12 -26 13 -37 3 -13 -10 -13 -9 -2 10 l14 22
29 -21 c15 -11 26 -22 23 -25z m1008 32 c6 -17 -37 -50 -54 -40 -17 11 -11 22
13 21 15 -1 22 4 21 17 -2 21 12 23 20 2z m-501 -2 c-7 -2 -19 -2 -25 0 -7 3
-2 5 12 5 14 0 19 -2 13 -5z m40 -28 c-2 -5 -32 -11 -68 -13 -54 -2 -65 0 -65
13 0 13 11 15 68 13 38 -2 66 -7 65 -13z m111 -71 c-10 -32 -20 -52 -22 -46
-2 7 -9 9 -15 5 -6 -4 -2 6 11 21 12 16 22 39 22 51 0 12 3 25 7 28 15 16 14
-5 -3 -59z m257 45 c9 -17 8 -20 -2 -14 -9 6 -11 3 -6 -8 9 -24 0 -21 -14 4
-9 17 -8 20 2 14 9 -6 11 -3 6 8 -9 24 0 21 14 -4z m129 1 c0 -4 -11 -11 -25
-14 -14 -4 -25 -14 -25 -22 0 -16 7 -16 55 1 l20 7 -20 -16 c-11 -8 -25 -19
-31 -24 -7 -6 -15 -3 -22 9 -19 29 -14 48 13 55 14 3 22 11 18 17 -3 6 -1 7 5
3 7 -4 12 -11 12 -16z m-1073 -27 c-3 -2 -15 1 -27 7 -12 6 -29 9 -37 6 -13
-5 -14 -4 -3 9 11 13 15 13 42 -1 16 -9 28 -18 25 -21z m263 -9 c12 -19 20
-37 18 -39 -2 -3 -15 13 -27 35 -28 50 -21 53 9 4z m277 29 c-20 -2 -52 -2
-70 0 -17 2 0 4 38 4 39 0 53 -2 32 -4z m-203 -54 c-2 -4 3 -10 12 -13 8 -3
12 -10 9 -16 -3 -5 -1 -10 4 -10 6 0 11 -4 11 -10 0 -19 -15 -10 -32 21 -10
17 -18 40 -17 52 0 21 1 21 8 2 5 -11 7 -23 5 -26z m266 26 c0 -10 -11 -15
-32 -16 l-33 -2 35 -7 c23 -5 0 -7 -70 -7 -89 0 -97 1 -52 7 29 4 56 11 60 15
4 4 -14 4 -40 1 -49 -7 -73 -2 -63 15 4 5 49 9 101 9 77 0 94 -3 94 -15z m153
0 c-3 -9 -8 -14 -10 -11 -3 3 -2 9 2 15 9 16 15 13 8 -4z m-797 -31 c19 -15
19 -15 -1 -6 -11 5 -26 7 -32 5 -7 -3 -13 0 -13 6 0 16 23 13 46 -5z m1030
-19 c11 -27 12 -40 4 -53 -9 -14 -10 -13 -4 7 4 16 3 21 -5 17 -7 -4 -9 -1 -5
8 3 8 1 24 -6 35 -6 12 -8 21 -5 21 3 0 13 -16 21 -35z m-256 -30 c0 -49 -2
-55 -21 -55 -11 0 -17 -5 -14 -10 4 -6 11 -7 17 -4 7 4 8 2 4 -4 -10 -17 -33
-15 -40 3 -3 8 -1 15 4 15 12 0 40 65 40 91 0 11 2 19 5 19 3 0 5 -25 5 -55z
m388 9 c10 -30 9 -32 -24 -42 -43 -13 -55 2 -12 17 22 8 28 15 21 22 -6 6 -18
6 -36 0 -15 -6 -27 -7 -27 -2 0 5 13 12 29 16 22 5 28 11 24 23 -4 11 -3 14 4
7 6 -5 15 -24 21 -41z m-154 20 c3 -8 2 -12 -4 -9 -6 3 -10 10 -10 16 0 14 7
11 14 -7z m-1024 -15 c20 -17 21 -19 5 -13 -11 4 -28 7 -37 8 -19 0 -23 8 -11
19 10 10 16 8 43 -14z m682 -4 l5 -25 -123 0 -124 0 0 25 0 25 119 0 c119 0
119 0 123 -25z m218 11 c0 -3 -4 -8 -10 -11 -5 -3 -10 -1 -10 4 0 6 5 11 10
11 6 0 10 -2 10 -4z m-827 -21 c-3 -9 -8 -14 -10 -11 -3 3 -2 9 2 15 9 16 15
13 8 -4z m642 6 c3 -5 2 -12 -3 -15 -5 -3 -9 1 -9 9 0 17 3 19 12 6z m-440
-21 c10 -11 16 -20 13 -20 -3 0 -13 9 -23 20 -10 11 -16 20 -13 20 3 0 13 -9
23 -20z m-300 -12 c14 -6 25 -18 25 -25 0 -12 -3 -11 -16 1 -8 9 -22 16 -30
16 -8 0 -14 5 -14 10 0 13 3 13 35 -2z m385 -3 c0 -9 7 -18 15 -21 8 -4 15
-11 15 -16 0 -6 -7 -7 -16 -4 -8 3 -12 2 -9 -4 3 -6 1 -10 -6 -10 -7 0 -9 8
-6 21 3 12 0 22 -9 26 -19 7 -18 23 1 23 8 0 15 -7 15 -15z m483 -5 c-3 -11
-13 -20 -22 -19 -10 0 -11 2 -3 6 6 2 12 11 12 19 0 8 4 14 9 14 5 0 7 -9 4
-20z m-133 -5 c0 -13 -23 -15 -150 -15 -137 0 -163 4 -143 23 3 4 71 7 150 7
120 0 143 -2 143 -15z m400 -134 c29 -134 25 -340 -9 -465 -89 -325 -294 -519
-540 -514 l-76 1 90 7 c50 3 99 12 110 19 20 12 20 12 0 6 -45 -15 -147 -17
-207 -4 l-63 14 85 6 85 6 -96 0 c-87 -1 -101 2 -142 26 -25 15 -49 32 -52 37
-9 15 -27 12 -19 -2 4 -7 4 -10 0 -6 -4 3 -7 10 -7 15 0 15 -62 72 -72 66 -6
-3 -7 -1 -4 4 4 6 -13 40 -37 76 -67 100 -134 294 -137 395 0 25 -1 25 -10 7
-7 -16 -8 -12 -4 14 3 18 5 56 5 84 0 77 7 53 15 -48 13 -182 57 -321 147
-465 17 -26 20 -25 40 8 12 21 34 33 85 50 38 12 72 22 76 22 4 0 7 -20 7 -45
0 -25 -4 -45 -10 -45 -5 0 -10 -8 -10 -17 1 -17 2 -17 14 0 12 15 18 16 35 8
11 -6 23 -11 28 -11 4 1 -4 8 -19 16 -22 12 -28 22 -28 49 0 39 1 40 47 23 29
-11 33 -16 33 -50 0 -21 -4 -38 -10 -38 -5 0 -7 -7 -4 -15 8 -19 0 -19 -36 0
-17 9 -30 13 -30 10 0 -2 18 -14 40 -25 32 -16 40 -18 40 -6 0 8 4 16 8 18 5
2 6 29 2 61 l-6 57 90 -1 c60 0 84 -3 71 -9 -11 -5 -14 -9 -7 -9 6 -1 13 -9
13 -18 1 -15 2 -15 6 -2 3 13 54 39 76 39 4 0 7 -15 7 -33 0 -28 -5 -36 -35
-50 -44 -21 -45 -21 -46 1 0 14 -2 14 -8 -3 -5 -11 -4 -25 1 -32 7 -9 -7 -13
-59 -16 l-68 -3 74 -2 c60 -2 72 -5 67 -17 -3 -9 0 -15 9 -15 8 0 12 6 10 13
-3 7 14 24 40 39 31 19 45 23 45 14 0 -7 -14 -19 -30 -26 -17 -7 -33 -17 -36
-22 -3 -5 12 0 35 11 43 22 56 56 26 67 -10 4 -15 20 -15 50 l0 44 -37 -15
c-44 -19 -55 -12 -16 9 l28 16 -29 -6 c-20 -5 -27 -4 -22 5 4 6 2 11 -3 11 -6
0 -11 -7 -11 -15 0 -12 -17 -15 -91 -15 -49 0 -88 4 -85 8 5 9 -56 42 -77 41
-7 0 5 -7 26 -16 20 -8 37 -19 37 -24 0 -6 -8 -5 -19 1 -11 5 -23 10 -28 10
-4 -1 5 -8 20 -16 37 -20 30 -27 -11 -12 -20 8 -30 18 -27 26 2 7 -2 15 -11
19 -12 4 -8 12 18 34 20 19 38 27 48 23 8 -4 32 -10 52 -14 21 -4 44 -13 52
-19 9 -8 15 -8 18 -2 1 6 23 15 48 20 25 5 52 11 60 15 8 3 26 -3 40 -13 l24
-19 -34 -16 c-34 -16 -32 -16 20 -2 23 7 24 6 7 -8 -17 -13 -14 -16 38 -35 31
-12 60 -21 66 -21 5 0 29 -18 53 -40 l43 -40 25 38 c39 58 74 131 94 195 14
46 20 55 26 40 5 -11 6 -3 3 22 -3 24 -1 33 3 21 11 -27 32 118 32 222 0 103
-19 229 -32 210 -6 -8 -7 -2 -3 17 3 17 -1 50 -10 74 -18 53 -19 64 -1 31 8
-14 24 -72 36 -129z m-797 109 c3 -11 2 -20 -3 -20 -4 0 -10 9 -13 20 -3 11
-2 20 3 20 4 0 10 -9 13 -20z m887 5 c0 -8 -2 -15 -4 -15 -2 0 -6 7 -10 15 -3
8 -1 15 4 15 6 0 10 -7 10 -15z m-131 -35 c0 -10 -3 -8 -9 5 -12 27 -12 43 0
25 5 -8 9 -22 9 -30z m-1095 24 c18 -7 22 -34 5 -34 -5 0 -8 4 -4 9 7 12 -31
25 -45 16 -5 -3 -10 -1 -10 4 0 12 29 14 54 5z m746 -3 c0 -5 -6 -12 -12 -14
-7 -3 2 -6 20 -6 25 -1 32 -5 32 -21 0 -17 -6 -19 -52 -15 l-53 4 53 -10 c53
-11 75 -30 25 -22 -22 4 -25 2 -13 -6 12 -9 11 -11 -10 -12 -14 -1 -54 -3 -90
-5 -57 -3 -67 -1 -78 16 -11 18 -10 20 23 20 28 0 33 -3 28 -17 -6 -17 -5 -17
14 0 11 9 23 14 28 10 4 -5 5 -2 1 5 -4 7 -30 12 -68 12 l-60 0 16 -25 16 -25
-52 1 c-29 0 -62 4 -73 9 -17 6 -13 9 20 15 22 3 45 9 50 11 14 6 -75 -4 -102
-12 -13 -4 -23 -2 -23 4 0 6 28 15 63 21 l62 10 -62 -5 c-58 -5 -63 -4 -63 16
0 17 7 20 43 21 23 1 32 4 20 6 -13 2 -23 9 -23 14 0 5 68 9 160 9 90 0 160
-4 160 -9z m103 -19 c-8 -20 -32 -46 -38 -40 -7 7 27 68 36 63 4 -3 5 -13 2
-23z m97 24 c0 -2 -8 -10 -17 -17 -16 -13 -17 -12 -4 4 13 16 21 21 21 13z
m260 -7 c0 -10 -31 -20 -41 -13 -17 10 -9 19 16 19 14 0 25 -3 25 -6z m59 -11
c0 -16 -2 -18 -6 -8 -3 8 -11 18 -17 22 -7 5 -4 8 7 8 11 0 17 -7 16 -22z
m-899 -55 c0 -15 -6 -23 -17 -23 -15 0 -16 2 -3 10 13 9 13 11 0 20 -10 6 -11
10 -3 10 7 0 10 7 7 18 -5 14 -4 15 5 2 6 -8 11 -25 11 -37z m535 -5 c-4 -18
-11 -34 -16 -36 -4 -2 -6 -11 -3 -20 4 -12 2 -12 -7 2 -9 15 -9 21 -1 24 7 2
12 17 12 33 0 16 5 29 11 29 7 0 8 -12 4 -32z m-75 -18 c-13 -9 -13 -10 0 -10
12 0 13 -2 1 -9 -7 -5 -10 -14 -7 -20 4 -6 2 -11 -3 -11 -6 0 -11 5 -11 11 0
5 -5 7 -10 4 -6 -4 -8 -11 -5 -16 4 -5 1 -9 -5 -9 -6 0 -8 -5 -4 -12 4 -7 3
-8 -5 -4 -13 8 -10 15 26 64 14 18 28 31 31 27 4 -3 0 -10 -8 -15z m-518 -35
c1 -11 10 -23 18 -27 11 -5 9 -7 -7 -7 -13 -1 -23 3 -23 8 0 5 -3 24 -6 42 -4
24 -2 30 4 19 6 -8 12 -24 14 -35z m82 -1 c3 -8 2 -12 -4 -9 -6 3 -10 10 -10
16 0 14 7 11 14 -7z m321 6 c3 -5 1 -10 -4 -10 -6 0 -11 5 -11 10 0 6 2 10 4
10 3 0 8 -4 11 -10z m257 -18 c-7 -2 -12 -10 -12 -18 0 -8 -4 -14 -10 -14 -14
0 -12 8 8 35 9 13 19 18 21 12 2 -6 -1 -13 -7 -15z m-605 -4 c-3 -8 -6 -5 -6
6 -1 11 2 17 5 13 3 -3 4 -12 1 -19z m498 -16 c-8 -2 -15 -8 -15 -13 0 -5 -4
-9 -10 -9 -16 0 -12 22 7 36 14 9 20 9 25 1 4 -7 1 -13 -7 -15z m-880 -3 c11
-35 -31 -53 -55 -24 -10 12 -10 18 0 30 18 22 48 18 55 -6z m1269 8 c17 -12
17 -14 -1 -35 -16 -20 -20 -21 -37 -9 -13 9 -16 20 -12 35 8 25 24 28 50 9z
m-834 -7 c0 -5 -5 -10 -11 -10 -5 0 -7 5 -4 10 3 6 8 10 11 10 2 0 4 -4 4 -10z
m110 -24 c0 -5 -7 -3 -15 4 -8 6 -20 9 -27 5 -7 -4 -4 1 6 9 16 13 22 13 28 3
4 -6 8 -16 8 -21z m597 2 c-3 -7 -5 -2 -5 12 0 14 2 19 5 13 2 -7 2 -19 0 -25z
m-848 -9 c-14 -8 -29 -3 -29 11 0 4 9 6 21 3 15 -4 17 -8 8 -14z m101 -5 c0
-2 -9 0 -20 6 -11 6 -20 13 -20 16 0 2 9 0 20 -6 11 -6 20 -13 20 -16z m551
11 c8 4 5 -1 -7 -12 -26 -26 -60 -37 -69 -23 -4 6 -4 14 0 18 4 4 10 2 12 -5
5 -13 33 -6 33 8 0 4 -7 6 -15 3 -8 -4 -15 -1 -15 4 0 14 33 21 41 9 4 -5 13
-6 20 -2z m-228 -14 c3 -14 1 -18 -9 -14 -15 6 -18 16 -7 26 9 10 10 9 16 -12z
m127 0 c15 -30 12 -33 -10 -11 -22 22 -25 30 -10 30 5 0 14 -9 20 -19z m-477
-27 c-4 -10 -9 -12 -15 -6 -12 12 -1 35 12 27 5 -3 6 -13 3 -21z m-46 10 c-3
-3 -12 -4 -19 -1 -8 3 -5 6 6 6 11 1 17 -2 13 -5z m457 -19 c-19 -29 -29 -34
-15 -6 6 10 7 21 4 25 -3 3 1 6 11 6 15 0 15 -2 0 -25z m373 -122 c-2 -27 -3
-5 -3 47 0 52 1 74 3 48 2 -27 2 -69 0 -95z m-449 100 c52 -39 74 -83 70 -140
-8 -89 -75 -153 -163 -153 -173 0 -227 226 -73 304 44 22 129 17 166 -11z
m-478 8 c0 -5 8 -12 18 -15 10 -3 7 -4 -7 -3 -24 2 -44 27 -22 27 6 0 11 -4
11 -9z m80 5 c0 -3 -4 -8 -10 -11 -5 -3 -10 -1 -10 4 0 6 5 11 10 11 6 0 10
-2 10 -4z m568 -21 c-3 -3 -9 2 -12 12 -6 14 -5 15 5 6 7 -7 10 -15 7 -18z
m92 8 c0 -15 -2 -16 -10 -3 -5 8 -10 10 -10 4 0 -7 -9 -14 -21 -17 -15 -4 -19
-2 -15 9 3 8 1 14 -4 14 -6 0 -10 -5 -10 -12 0 -6 -3 -9 -6 -5 -13 13 9 27 42
27 26 0 34 -4 34 -17z m-615 -11 c-3 -3 -15 -6 -27 -7 -20 -2 -20 -1 -3 11 17
13 43 9 30 -4z m477 -24 c-8 -8 -9 -4 -5 13 4 13 8 18 11 10 2 -7 -1 -18 -6
-23z m-552 -18 c0 -12 -7 -20 -17 -21 -17 -1 -17 -2 0 -6 24 -6 22 -43 -3 -43
-11 0 -20 5 -20 11 0 6 7 9 15 5 8 -3 15 -1 15 4 0 6 -7 10 -15 10 -21 0 -19
37 3 49 23 14 22 14 22 -9z m53 13 c-7 -2 -21 -2 -30 0 -10 3 -4 5 12 5 17 0
24 -2 18 -5z m644 -7 c4 -3 3 -9 -1 -13 -4 -4 -11 -1 -16 7 -7 10 -10 11 -10
3 0 -7 -12 -13 -26 -13 -14 0 -23 4 -20 9 4 5 0 11 -6 14 -7 2 6 3 30 2 24 -1
46 -5 49 -9z m-787 -6 c8 -5 12 -11 10 -14 -3 -2 -14 2 -24 10 -22 15 -10 19
14 4z m821 1 c7 11 9 10 9 -3 0 -10 -7 -18 -15 -18 -8 0 -15 8 -14 18 0 12 2
13 6 3 5 -11 7 -11 14 0z m39 -1 c0 -5 -4 -10 -10 -10 -5 0 -10 5 -10 10 0 6
5 10 10 10 6 0 10 -4 10 -10z m-820 -15 c0 -8 -4 -15 -8 -15 -5 0 -9 7 -9 15
0 8 4 15 9 15 4 0 8 -7 8 -15z m80 5 c0 -5 -5 -10 -11 -10 -5 0 -7 5 -4 10 3
6 8 10 11 10 2 0 4 -4 4 -10z m26 -6 c-3 -9 -6 -20 -6 -25 0 -6 -4 -7 -10 -4
-5 3 -10 1 -10 -4 0 -6 -4 -11 -10 -11 -5 0 -10 7 -10 15 0 8 7 15 15 15 8 0
15 7 15 15 0 8 5 15 11 15 6 0 8 -7 5 -16z m638 -30 c9 -8 16 -11 16 -6 0 7
11 6 30 -1 17 -7 26 -15 21 -20 -11 -11 -71 1 -71 14 0 5 -6 9 -14 9 -8 0 -18
5 -21 10 -10 16 22 11 39 -6z m-584 -9 c0 -2 -6 -8 -13 -14 -10 -8 -14 -7 -14
2 0 8 6 14 14 14 7 0 13 -1 13 -2z m-181 -15 c-10 -7 -49 -2 -49 5 0 2 14 3
31 3 17 -1 25 -4 18 -8z m1071 -22 c0 -5 -9 -3 -20 4 -11 7 -20 16 -20 20 0 5
9 3 20 -4 11 -7 20 -16 20 -20z m-1282 5 c-2 -11 -12 -18 -25 -18 -12 0 -25
-3 -29 -7 -17 -17 -26 -7 -10 11 17 18 17 19 -1 24 -10 3 1 5 25 6 36 1 43 -2
40 -16z m332 2 c0 -8 -4 -15 -10 -15 -5 0 -10 7 -10 15 0 8 5 15 10 15 6 0 10
-7 10 -15z m620 0 c0 -6 -10 -11 -22 -9 -34 4 -34 4 -20 12 19 12 42 10 42 -3z
m-682 -9 c-7 -8 -15 -12 -17 -11 -5 6 10 25 20 25 5 0 4 -6 -3 -14z m559 -8
c-3 -8 -6 -5 -6 6 -1 11 2 17 5 13 3 -3 4 -12 1 -19z m163 8 c6 -8 24 -16 38
-18 25 -3 25 -4 -7 -9 -28 -5 -35 -2 -39 13 -4 15 -7 17 -13 6 -7 -10 -9 -9
-9 5 0 21 13 22 30 3z m-754 -33 c-10 -10 -19 5 -10 18 6 11 8 11 12 0 2 -7 1
-15 -2 -18z m87 -4 c-3 -10 -12 -19 -20 -19 -8 0 -11 5 -8 10 4 6 2 17 -4 24
-9 11 -6 12 13 9 17 -4 22 -10 19 -24z m928 22 c-8 -5 -12 -18 -9 -29 3 -11 2
-26 -3 -33 -6 -9 -9 -2 -9 22 0 37 6 49 24 49 6 0 5 -4 -3 -9z m-303 -22 c2
-5 10 -9 17 -9 16 0 64 -39 48 -40 -6 0 -18 7 -27 15 -16 16 -30 20 -22 6 4
-5 -5 -4 -18 2 -13 7 -22 15 -20 19 2 4 -4 12 -13 18 -15 9 -14 10 7 4 14 -4
27 -11 28 -15z m199 -11 c-3 -7 -5 -2 -5 12 0 14 2 19 5 13 2 -7 2 -19 0 -25z
m-883 -25 c-10 -7 -27 -13 -38 -13 -17 0 -18 2 -6 10 8 5 24 10 35 11 13 0 15
3 6 6 -11 5 -11 7 0 14 22 13 24 -12 3 -28z m591 18 c-3 -6 -11 -8 -17 -5 -6
4 -5 9 3 15 16 10 23 4 14 -10z m-885 -1 c13 0 5 -31 -11 -41 -23 -14 -36 -10
-15 6 20 15 12 40 -11 31 -8 -4 -11 -1 -8 5 4 6 14 8 22 5 8 -3 18 -6 23 -6z
m40 -14 c0 -3 -4 -8 -10 -11 -5 -3 -10 -1 -10 4 0 6 5 11 10 11 6 0 10 -2 10
-4z m350 -53 c0 -7 5 -13 10 -13 6 0 10 -11 10 -24 0 -13 4 -26 10 -28 5 -2 6
-9 1 -17 -10 -16 -41 -8 -41 11 0 9 3 9 10 -2 5 -8 12 -11 16 -7 4 4 -1 16
-11 27 -13 15 -14 20 -5 20 10 0 11 3 3 11 -16 16 -53 1 -63 -24 -7 -18 -9
-18 -9 -4 -1 22 36 60 50 51 7 -4 7 1 0 15 -7 11 -16 21 -22 21 -6 0 -7 5 -3
11 8 13 43 -27 44 -48z m552 40 c18 -16 18 -16 12 3 -6 13 4 9 32 -16 34 -30
36 -35 19 -38 -10 -2 -21 1 -23 7 -2 6 -9 11 -15 11 -7 0 -23 12 -36 25 -26
28 -18 34 11 8z m391 10 c-7 -2 -21 -2 -30 0 -10 3 -4 5 12 5 17 0 24 -2 18
-5z m-993 -29 c0 0 -8 -8 -18 -17 -16 -15 -18 -15 -19 1 -1 11 6 18 18 18 10
0 19 -1 19 -2z m130 -4 c0 -5 -4 -10 -10 -10 -5 0 -10 5 -10 10 0 6 5 10 10
10 6 0 10 -4 10 -10z m454 -14 c18 7 38 -20 30 -40 -5 -13 -9 -13 -24 7 -10
12 -22 19 -26 14 -4 -4 -2 -13 4 -19 7 -7 12 -20 12 -29 0 -10 6 -20 13 -22 7
-3 6 -6 -5 -6 -10 -1 -18 8 -20 22 -2 12 -9 21 -16 20 -6 -2 -12 6 -12 17 0
11 5 20 10 20 6 0 10 8 11 18 0 9 3 12 5 5 3 -7 11 -10 18 -7z m-874 -6 c0 -6
-23 -9 -52 -8 l-53 1 45 7 c25 4 48 8 53 8 4 1 7 -2 7 -8z m405 -10 c3 -6 -1
-7 -9 -4 -18 7 -21 14 -7 14 6 0 13 -4 16 -10z m395 6 c0 -3 -4 -8 -10 -11 -5
-3 -10 -1 -10 4 0 6 5 11 10 11 6 0 10 -2 10 -4z m407 -46 c4 0 15 8 25 17 16
14 21 15 33 2 10 -9 11 -19 5 -29 -8 -12 -10 -11 -10 8 0 26 -7 28 -31 6 -22
-20 -39 -10 -38 19 2 22 2 22 6 0 2 -13 7 -23 10 -23z m-780 8 c-3 -8 -6 -5
-6 6 -1 11 2 17 5 13 3 -3 4 -12 1 -19z m-431 -6 c7 -4 -1 -15 -22 -29 -19
-12 -34 -18 -34 -13 0 5 5 12 11 15 6 4 8 13 5 21 -6 15 21 19 40 6z m264 -17
c0 -8 -4 -15 -10 -15 -5 0 -7 7 -4 15 4 8 8 15 10 15 2 0 4 -7 4 -15z m214 -1
c3 -8 2 -12 -4 -9 -6 3 -10 10 -10 16 0 14 7 11 14 -7z m251 7 c3 -5 0 -13 -6
-17 -7 -4 -9 -3 -5 4 3 6 -2 13 -11 15 -16 4 -16 5 -1 6 9 0 19 -3 23 -8z
m107 -13 c7 -13 22 -48 35 -78 l22 -55 -24 28 c-14 15 -25 39 -25 51 0 13 -6
26 -14 29 -12 5 -14 -4 -11 -43 2 -27 7 -55 11 -62 6 -9 3 -9 -9 1 -10 8 -17
28 -17 48 0 19 -5 43 -10 53 -8 16 -7 18 4 14 19 -7 32 16 15 27 -10 6 -10 9
-2 9 7 0 18 -10 25 -22z m135 2 c21 -11 31 -20 22 -20 -8 0 -24 6 -34 14 -11
8 -25 12 -32 9 -7 -3 -13 0 -13 6 0 16 15 14 57 -9z m-662 -39 c-14 -13 -16
-13 -11 -1 3 8 9 24 13 35 7 19 7 19 11 1 2 -10 -4 -26 -13 -35z m102 23 c-3
-3 -12 -4 -19 -1 -8 3 -5 6 6 6 11 1 17 -2 13 -5z m233 -9 c0 -8 -2 -15 -4
-15 -2 0 -6 7 -10 15 -3 8 -1 15 4 15 6 0 10 -7 10 -15z m576 -10 c3 -14 11
-25 17 -25 6 0 8 -2 5 -5 -9 -10 -38 7 -36 20 2 8 -1 14 -7 13 -5 0 -9 -4 -7
-9 1 -5 -2 -9 -8 -9 -11 0 -14 23 -3 33 14 15 33 6 39 -18z m-862 -14 c-3 -9
-9 -24 -11 -33 -3 -10 -9 -18 -14 -18 -5 0 -5 10 0 23 4 12 6 27 4 33 -2 6 4
11 12 11 11 0 14 -6 9 -16z m570 -14 c10 -4 16 -10 13 -14 -9 -8 -57 25 -57
40 1 8 5 7 13 -4 7 -8 21 -18 31 -22z m-958 -2 c1 -8 -2 -15 -7 -15 -5 0 -9
10 -9 22 0 23 12 17 16 -7z m64 17 c0 -4 -9 -8 -19 -8 -11 0 -17 4 -15 8 3 4
12 8 20 8 8 0 14 -4 14 -8z m357 -7 c0 -8 -4 -15 -9 -15 -10 0 -11 14 -1 23 9
10 10 9 10 -8z m-97 -9 c0 -2 -7 -6 -15 -10 -8 -3 -15 -1 -15 4 0 6 7 10 15
10 8 0 15 -2 15 -4z m-290 -10 c0 -3 -4 -8 -10 -11 -5 -3 -10 -1 -10 4 0 6 5
11 10 11 6 0 10 -2 10 -4z m390 -30 c0 -14 -8 -27 -17 -31 -15 -5 -16 -4 -5 6
6 7 12 21 12 31 0 10 2 18 5 18 3 0 5 -11 5 -24z m-356 -10 c-17 -13 -18 -15
-2 -21 9 -4 22 -4 28 0 5 3 10 1 10 -4 0 -6 -9 -11 -19 -11 -11 0 -23 -4 -26
-10 -3 -5 -12 -10 -18 -10 -7 0 -6 4 3 10 12 7 12 13 4 27 -9 14 -7 20 10 29
28 14 35 8 10 -10z m1164 13 c-2 -6 3 -14 10 -16 6 -3 12 3 12 13 0 9 3 15 6
11 3 -3 3 -15 -1 -26 -5 -17 -9 -19 -30 -9 -19 9 -22 14 -14 25 14 16 20 17
17 2z m-32 -40 c19 -22 19 -22 -3 -10 -13 6 -23 16 -23 21 0 15 5 12 26 -11z
m24 -35 c0 -2 -16 -4 -35 -4 -19 0 -35 4 -35 8 0 4 16 6 35 4 19 -2 35 -6 35
-8z m-1121 -41 c-16 -14 -33 -23 -36 -19 -3 3 2 8 11 12 25 9 19 22 -11 27
-16 2 -7 4 19 4 l47 0 -30 -24z m1101 -15 c0 -4 -13 1 -30 10 -16 9 -30 20
-30 24 0 4 13 -1 30 -10 16 -9 30 -20 30 -24z m-20 -25 c0 -2 -9 -3 -21 -3
-12 0 -17 4 -14 11 4 6 -2 13 -14 16 -11 3 -18 9 -15 14 4 7 64 -28 64 -38z
m-375 27 c5 -8 -62 -50 -80 -50 -18 0 1 22 33 39 45 24 40 23 47 11z m-635
-44 c0 -6 -4 -5 -9 3 -7 11 -13 11 -32 1 -13 -7 -27 -18 -31 -24 -5 -8 -8 -7
-8 2 0 7 11 18 25 24 14 6 25 16 25 21 0 5 7 4 15 -3 8 -7 15 -18 15 -24z
m965 -1 c14 -14 25 -28 25 -31 0 -8 -59 40 -59 49 -1 12 7 8 34 -18z m-25 -30
c13 -14 21 -27 18 -30 -2 -3 -17 9 -33 25 -16 17 -24 30 -19 30 6 0 21 -11 34
-25z m-15 -53 c-7 -7 -45 29 -45 41 0 6 11 0 25 -13 14 -13 23 -26 20 -28z
m-855 2 c0 -8 -9 -14 -19 -14 -12 0 -21 -8 -24 -22 -4 -19 -5 -18 -6 6 -1 25
-3 27 -18 15 -10 -7 -4 1 12 17 30 30 55 29 55 -2z m795 -49 l30 -25 -37 17
c-21 10 -38 21 -38 26 0 13 15 7 45 -18z m-763 -28 c-9 -20 -21 -36 -25 -37
-4 0 -3 9 3 19 12 23 1 34 -27 26 -10 -3 0 3 22 13 22 11 41 19 42 18 1 -1 -5
-19 -15 -39z m168 -3 c0 -2 -9 0 -20 6 -11 6 -20 13 -20 16 0 2 9 0 20 -6 11
-6 20 -13 20 -16z m579 -17 c1 -5 -3 -5 -9 -2 -5 3 -10 16 -9 28 0 21 1 21 9
2 5 -11 9 -24 9 -28z m-711 -5 c-27 -32 -40 -42 -52 -42 -5 0 3 9 17 20 14 11
29 29 32 40 4 11 11 18 16 14 6 -4 1 -17 -13 -32z m652 20 c0 -11 10 -24 23
-30 21 -11 20 -11 -6 -6 -22 5 -26 3 -21 -10 11 -27 -5 -18 -21 14 -20 39 -19
50 5 50 13 0 20 -7 20 -18z m-599 -43 c-9 -22 -10 -22 -10 -3 -1 11 2 24 6 27
12 12 14 0 4 -24z m176 15 c-3 -3 -12 -4 -19 -1 -8 3 -5 6 6 6 11 1 17 -2 13
-5z m379 -20 c4 -14 2 -30 -3 -35 -7 -7 -9 -2 -6 15 4 20 0 28 -18 35 -24 10
-24 10 -2 10 16 1 24 -6 29 -25z m-497 -16 c9 -31 10 -31 16 -10 4 12 11 22
17 22 10 0 -7 -36 -22 -45 -6 -4 -8 -11 -5 -16 4 -5 1 -9 -4 -9 -6 0 -11 11
-11 25 0 14 -4 25 -10 25 -5 0 -10 -9 -10 -21 0 -11 -4 -18 -10 -14 -7 4 17
74 27 75 1 0 7 -15 12 -32z m455 -5 c9 -18 12 -33 7 -33 -5 0 -11 8 -14 18 -2
9 -8 26 -12 37 -11 28 0 16 19 -22z m-36 -8 c-3 -3 -9 2 -12 12 -6 14 -5 15 5
6 7 -7 10 -15 7 -18z m-340 -17 c-2 -13 -9 -22 -17 -20 -7 1 -19 -3 -27 -9 -8
-7 -14 -7 -14 -1 0 15 28 35 39 27 7 -3 8 0 5 9 -3 9 -1 16 6 16 6 0 10 -10 8
-22z m331 1 c13 -11 22 -22 19 -24 -3 -3 -11 1 -18 10 -18 22 -32 18 -25 -6 5
-13 3 -19 -3 -15 -14 9 -21 56 -8 56 6 -1 22 -10 35 -21z m-249 2 c0 -5 -9 -7
-20 -4 -11 3 -20 7 -20 9 0 2 9 4 20 4 11 0 20 -4 20 -9z m135 -18 c1 -11 7
-28 14 -37 7 -9 9 -16 3 -16 -5 0 -12 7 -16 15 -7 20 -24 19 -29 -2 -3 -10 -5
1 -6 25 -1 36 2 43 17 40 9 -2 17 -13 17 -25z m-69 -51 c-3 -3 -6 2 -6 11 0
22 -19 22 -37 0 -16 -20 -6 -1 17 35 l15 22 8 -31 c5 -17 6 -34 3 -37z m-122
43 c-4 -8 -1 -22 6 -30 8 -9 8 -15 2 -15 -13 0 -26 36 -17 50 9 15 15 12 9 -5z
m245 -30 c0 -5 -4 -3 -9 5 -5 8 -9 22 -9 30 0 16 17 -16 18 -35z m-196 5 c-3
-11 -9 -20 -13 -20 -5 0 -6 9 -3 20 3 11 9 20 13 20 5 0 6 -9 3 -20z"/>
<path d="M1100 1971 c0 -11 5 -23 10 -26 6 -3 10 3 10 14 0 11 -4 23 -10 26
-5 3 -10 -3 -10 -14z"/>
<path d="M1462 1840 c-8 -13 -8 -20 -2 -20 6 0 13 7 17 15 9 24 -1 27 -15 5z"/>
<path d="M1454 1727 c33 -35 63 -62 65 -60 6 4 -110 123 -120 123 -4 0 21 -29
55 -63z"/>
<path d="M1078 1503 c23 -2 61 -2 85 0 23 2 4 4 -43 4 -47 0 -66 -2 -42 -4z"/>
<path d="M1641 833 c-1 -6 -4 -20 -7 -30 -5 -17 -5 -17 6 0 6 10 9 23 6 30 -3
9 -5 9 -5 0z"/>
<path d="M1621 764 c0 -11 3 -14 6 -6 3 7 2 16 -1 19 -3 4 -6 -2 -5 -13z"/>
<path d="M1576 668 c-20 -40 -29 -64 -20 -53 23 30 66 116 61 122 -3 2 -21
-28 -41 -69z"/>
<path d="M1078 653 c7 -3 16 -2 19 1 4 3 -2 6 -13 5 -11 0 -14 -3 -6 -6z"/>
<path d="M1465 516 c-38 -40 -81 -80 -95 -90 l-25 -17 25 12 c29 14 124 102
152 141 11 16 18 28 16 28 -2 -1 -34 -34 -73 -74z"/>
<path d="M1088 553 c6 -2 18 -2 25 0 6 3 1 5 -13 5 -14 0 -19 -2 -12 -5z"/>
<path d="M975 525 c22 -14 46 -25 54 -25 8 0 -8 11 -35 25 -62 32 -71 32 -19
0z"/>
<path d="M942 424 c7 -7 390 -5 397 1 2 3 -87 5 -199 5 -112 0 -201 -3 -198
-6z"/>
<path d="M1226 398 c3 -4 11 -5 19 -1 9 3 21 0 29 -6 10 -8 21 -8 41 -1 15 6
25 13 22 16 -3 3 -15 0 -27 -6 -15 -8 -25 -8 -34 -1 -13 11 -57 11 -50 -1z"/>
<path d="M1043 1413 c9 -2 25 -2 35 0 9 3 1 5 -18 5 -19 0 -27 -2 -17 -5z"/>
<path d="M1147 1413 c18 -2 50 -2 70 0 21 2 7 4 -32 4 -38 0 -55 -2 -38 -4z"/>
<path d="M1103 1373 c20 -2 54 -2 75 0 20 2 3 4 -38 4 -41 0 -58 -2 -37 -4z"/>
<path d="M1233 1343 c9 -2 23 -2 30 0 6 3 -1 5 -18 5 -16 0 -22 -2 -12 -5z"/>
<path d="M486 1263 c-11 -11 -6 -23 9 -23 8 0 15 4 15 9 0 13 -16 22 -24 14z"/>
<path d="M1760 1250 c0 -5 5 -10 10 -10 6 0 10 5 10 10 0 6 -4 10 -10 10 -5 0
-10 -4 -10 -10z"/>
<path d="M1075 1166 c-116 -52 -118 -212 -3 -272 59 -31 138 -9 184 51 90 119
-43 282 -181 221z m68 -81 c-3 -9 2 -24 12 -35 24 -27 13 -46 -30 -54 -30 -6
-36 -11 -33 -29 2 -17 11 -23 35 -25 26 -3 32 0 27 11 -7 19 8 28 25 17 19
-11 7 -39 -21 -49 -30 -11 -68 0 -84 25 -12 17 -11 23 2 42 8 12 26 22 39 22
30 0 43 20 21 32 -19 11 -21 29 -4 46 16 16 19 15 11 -3z"/>
<path d="M490 1020 c0 -5 5 -10 10 -10 6 0 10 5 10 10 0 6 -4 10 -10 10 -5 0
-10 -4 -10 -10z"/>
<path d="M1415 880 c3 -5 8 -10 11 -10 2 0 4 5 4 10 0 6 -5 10 -11 10 -5 0 -7
-4 -4 -10z"/>
<path d="M715 470 c-3 -5 1 -10 9 -10 9 0 16 5 16 10 0 6 -4 10 -9 10 -6 0
-13 -4 -16 -10z"/>
<path d="M1440 380 c0 -5 5 -10 10 -10 6 0 10 5 10 10 0 6 -4 10 -10 10 -5 0
-10 -4 -10 -10z"/>
<path d="M1200 275 c0 -8 5 -15 10 -15 6 0 10 7 10 15 0 8 -4 15 -10 15 -5 0
-10 -7 -10 -15z"/>
</g>
</svg>
